<svg xmlns="http://www.w3.org/2000/svg" viewBox="0 0 576 576"><defs><style>.cls-1{fill:none;}.cls-2{fill:#e3131b;}.cls-3{fill:#fff;}</style></defs><title>Asset 14CS</title><g id="Layer_2" data-name="Layer 2"><g id="art"><rect class="cls-1" width="576" height="576"/><circle class="cls-2" cx="288" cy="288" r="230.4"/><path class="cls-3" d="M305.84,158.43c51,0,80.44,28.76,80.44,72.8,0,28.76-18.93,47-32,53.51,16,7.28,36,23.66,36,58.24,0,48.41-33.48,74.62-79.71,74.62H202.1V158.43Zm-53.15,45.14v60.06h49.87c21.48,0,33.13-12,33.13-30.21,0-17.84-11.65-29.85-33.13-29.85Zm0,105.19v63.7h53.15c22.57,0,33.85-13.83,33.85-32,0-17.83-11.28-31.67-33.85-31.67Z"/></g></g></svg>