<svg xmlns="http://www.w3.org/2000/svg" viewBox="0 0 576 576"><defs><style>.cls-1{fill:none;}.cls-2{fill:#58a738;}.cls-3{fill:#fff;}</style></defs><title>Asset 13CS</title><g id="Layer_2" data-name="Layer 2"><g id="art"><rect class="cls-1" width="576" height="576"/><circle class="cls-2" cx="288" cy="288" r="230.4"/><path class="cls-3" d="M383.73,238.15H332.41c-5.1-21.11-18.57-36.77-43.68-36.77-13.83,0-25.12,5.1-32.4,13.47-9.46,10.92-12.74,23.66-12.74,73.17s3.28,62.24,12.74,73.16c7.28,8.37,18.57,13.47,32.4,13.47,25.11,0,38.58-15.65,43.68-36.77h51.32c-9.1,54.24-46.59,81.9-95,81.9-29.85,0-51.69-9.82-69.53-27.3C193.36,366.64,193,337.52,193,288s.36-78.63,26.2-104.47c17.84-17.47,39.68-27.3,69.53-27.3C337.14,156.25,374.63,183.91,383.73,238.15Z"/></g></g></svg>