<svg xmlns="http://www.w3.org/2000/svg" viewBox="0 0 576 576"><defs><style>.cls-1{fill:none;}.cls-2{fill:#fc4c02;}.cls-3{fill:#fff;}</style></defs><title>Asset 17CS</title><g id="Layer_2" data-name="Layer 2"><g id="art"><rect class="cls-1" width="576" height="576"/><rect class="cls-2" x="72" y="72" width="432" height="432"/><path class="cls-3" d="M384.28,239.24h-51c-5.82-24.75-20.75-37.86-46.59-37.86-13.83,0-24.75,5.46-32,13.84C244.87,226.14,242,238.51,242,288s2.91,62.24,12.74,73.16c7.28,8.37,18.2,13.47,32,13.47,15.65,0,28-5.46,36-14.56,8.38-9.47,11.65-21.11,11.65-34.58V316H286.73V273.46h97.91v37.85c0,37.49-6.55,59.7-24.75,79-20.75,21.48-45.5,29.48-73.16,29.48-29.49,0-51.33-9.82-69.16-27.3-25.85-25.84-26.21-55-26.21-104.46s.36-78.63,26.21-104.47c17.83-17.47,39.67-27.3,69.16-27.3C347.15,156.25,377.73,195.56,384.28,239.24Z"/></g></g></svg>